<svg id="Calque_1" data-name="Calque 1" xmlns="http://www.w3.org/2000/svg" viewBox="0 0 24 24"><title>app_notify</title><path d="M23.5,6.11l-3.07,0a9.84,9.84,0,0,0-16.87,0H.5L2.32,9.38a10.13,10.13,0,0,0-.17,1.83,9.85,9.85,0,0,0,6.39,9.22l1.24,2.21-.36-1.92a10,10,0,0,0,2.58.34,9.86,9.86,0,0,0,9.85-9.85A9.76,9.76,0,0,0,21,7.14ZM12,2.33a8.85,8.85,0,0,1,7.28,3.8l-10.7,0,0,0H4.71A8.88,8.88,0,0,1,12,2.33ZM7.76,17.09,3.34,9.23A8.64,8.64,0,0,1,4.13,7.1H8l0,0,10.52,0L6.78,11.88ZM2.14,7.1h.91a9.85,9.85,0,0,0-.37,1Zm1,4.11c0-.13,0-.27,0-.41L7.74,19A8.89,8.89,0,0,1,3.11,11.21Zm17.78,0A8.9,8.9,0,0,1,12,20.1a8.8,8.8,0,0,1-2.78-.45L7.87,12.47l12.2-5A8.67,8.67,0,0,1,20.89,11.21Z"/></svg>