<svg id="Calque_1" data-name="Calque 1" xmlns="http://www.w3.org/2000/svg" xmlns:xlink="http://www.w3.org/1999/xlink" viewBox="0 0 109 109"><defs><style>.cls-1{fill:url(#Dégradé_sans_nom_19);}.cls-2{fill:url(#Dégradé_sans_nom_19-2);}.cls-3{fill:url(#Dégradé_sans_nom_19-3);}</style><linearGradient id="Dégradé_sans_nom_19" x1="33" y1="54.5" x2="76" y2="54.5" gradientUnits="userSpaceOnUse"><stop offset="0" stop-color="#f15a24"/><stop offset="0.52" stop-color="#ed1e79"/><stop offset="1" stop-color="#662d91"/></linearGradient><linearGradient id="Dégradé_sans_nom_19-2" x1="41.68" x2="54.21" xlink:href="#Dégradé_sans_nom_19"/><linearGradient id="Dégradé_sans_nom_19-3" x1="54.79" x2="67.32" xlink:href="#Dégradé_sans_nom_19"/></defs><title>bkclay</title><rect x="-1" y="-1.5" width="111" height="112"/><path class="cls-1" d="M42.57,50l1-1-5.45-5.45-1,1a14.08,14.08,0,0,0,0,19.9l1,1L43.56,60l-1-1A6.36,6.36,0,0,1,42.57,50Zm29.31-5.45-1-1L65.44,49l1,1a6.36,6.36,0,0,1,0,9l-1,1,5.45,5.45,1-1A14.08,14.08,0,0,0,71.88,44.55ZM50,42.57a6.35,6.35,0,0,1,9,0l1,1,5.45-5.45-1-1a14.1,14.1,0,0,0-19.9,0l-1,1L49,43.55Zm9,23.86a6.36,6.36,0,0,1-9,0l-1-1L43.56,70.9l1,1a14.07,14.07,0,0,0,19.9,0l1-1L60,65.45Z"/><path class="cls-2" d="M51,62.29l-5.05,5-4.26-4.26,5-5a5,5,0,0,0,0-7l-.78-.78-4.26-4.27,4.26-4.27,4.27,4.27.78.78A11,11,0,0,1,51,62.29Z"/><path class="cls-3" d="M67.32,63.07l-4.26,4.26-5.05-5a11,11,0,0,1,0-15.58l.78-.78,4.27-4.27,4.26,4.27L63.06,50.2l-.78.78a5,5,0,0,0,0,7Z"/></svg>