<svg id="Calque_1" data-name="Calque 1" xmlns="http://www.w3.org/2000/svg" xmlns:xlink="http://www.w3.org/1999/xlink" viewBox="0 0 109 109"><defs><style>.cls-1{fill:url(#Dégradé_sans_nom_19);}.cls-2{fill:url(#Dégradé_sans_nom_19-2);}.cls-3{fill:url(#Dégradé_sans_nom_19-3);}</style><linearGradient id="Dégradé_sans_nom_19" x1="3.5" y1="54.5" x2="105.5" y2="54.5" gradientUnits="userSpaceOnUse"><stop offset="0" stop-color="#f15a24"/><stop offset="0.52" stop-color="#ed1e79"/><stop offset="1" stop-color="#662d91"/></linearGradient><linearGradient id="Dégradé_sans_nom_19-2" x1="24.08" y1="54.5" x2="53.8" y2="54.5" xlink:href="#Dégradé_sans_nom_19"/><linearGradient id="Dégradé_sans_nom_19-3" x1="55.2" y1="54.5" x2="84.92" y2="54.5" xlink:href="#Dégradé_sans_nom_19"/></defs><title>bkclay_l</title><path class="cls-1" d="M26.19,43.82l2.37-2.37L15.63,28.52l-2.37,2.37a33.43,33.43,0,0,0,0,47.21l2.37,2.37L28.56,67.54l-2.37-2.36A15.12,15.12,0,0,1,26.19,43.82ZM95.74,30.89l-2.37-2.37L80.44,41.45l2.37,2.37a15.12,15.12,0,0,1,0,21.36l-2.37,2.36L93.37,80.47l2.37-2.37A33.43,33.43,0,0,0,95.74,30.89Zm-51.92-4.7a15.14,15.14,0,0,1,21.36,0l2.33,2.33L80.44,15.6l-2.33-2.34a33.44,33.44,0,0,0-47.22,0L28.56,15.6,41.49,28.52ZM65.18,82.8a15.1,15.1,0,0,1-21.36,0l-2.33-2.33L28.56,93.4l2.33,2.33a33.41,33.41,0,0,0,47.22,0l2.33-2.33L67.51,80.47Z"/><path class="cls-2" d="M46.16,73l-12,12L24.08,74.82l12-12a11.86,11.86,0,0,0,0-16.71L34.2,44.29,24.08,34.17,34.2,24.05,44.32,34.17,46.16,36A26.15,26.15,0,0,1,46.16,73Z"/><path class="cls-3" d="M84.92,74.82,74.8,84.94l-12-12a26.15,26.15,0,0,1,0-36.95l1.84-1.85L74.8,24.05,84.92,34.17,74.8,44.29,73,46.14a11.89,11.89,0,0,0,0,16.71Z"/></svg>