<svg id="Calque_1" data-name="Calque 1" xmlns="http://www.w3.org/2000/svg" xmlns:xlink="http://www.w3.org/1999/xlink" viewBox="0 0 109 109"><defs><style>.cls-1{fill:url(#Dégradé_sans_nom_5);}.cls-2{fill:url(#Dégradé_sans_nom_5-2);}.cls-3{fill:url(#Dégradé_sans_nom_5-3);}</style><linearGradient id="Dégradé_sans_nom_5" x1="32" y1="54.5" x2="67.85" y2="54.5" gradientUnits="userSpaceOnUse"><stop offset="0" stop-color="#00a99d"/><stop offset="1" stop-color="#0071bc"/></linearGradient><linearGradient id="Dégradé_sans_nom_5-2" x1="60.21" y1="54.51" x2="77" y2="54.51" xlink:href="#Dégradé_sans_nom_5"/><linearGradient id="Dégradé_sans_nom_5-3" x1="52.12" y1="54.23" x2="71.68" y2="54.23" xlink:href="#Dégradé_sans_nom_5"/></defs><title>Kuntron</title><rect x="-2.5" y="-1.5" width="114" height="112"/><path class="cls-1" d="M67.62,35.74,49.86,51.8a2.09,2.09,0,0,0,0,3.3l18,17.77-2.75,1.8-16-16.22c0,1.4,0,2.48,0,3.55a1.75,1.75,0,0,0,.58.91q5.88,6,11.77,12c.26.27.51.55.77.83C55.72,79.1,44.1,77.85,37,68.92a23.07,23.07,0,0,1,1.86-30.69A22.12,22.12,0,0,1,67.62,35.74Z"/><path class="cls-2" d="M60.21,53.52,73.16,41.91c4.21,5.25,5.89,16.1.16,25.2Z"/><path class="cls-3" d="M56.22,53.37l15.4,15.9L69.76,71,52.12,53.52l17.73-16,1.83,2Z"/></svg>