<svg id="Calque_1" data-name="Calque 1" xmlns="http://www.w3.org/2000/svg" viewBox="0 0 350 105"><defs><style>.cls-1{fill:#f2f2f2;}</style></defs><title>Kuntron</title><path class="cls-1" d="M70.69,20.79l-30,27.15a3.54,3.54,0,0,0-.06,5.58l30.47,30-4.65,3-27-27.42c0,2.36-.07,4.19.05,6a2.93,2.93,0,0,0,1,1.54Q50.43,76.88,60.38,87c.44.45.86.93,1.31,1.41C50.58,94.08,31,92,18.9,76.87A39,39,0,0,1,22,25C36.09,11,56.81,10.49,70.69,20.79Z"/><path class="cls-1" d="M114.66,75.19h-10.1V27.09h9.93V54c2.45-2.68,4.65-5.07,6.82-7.49,1.63-1.8,3.17-3.69,4.88-5.41a3.7,3.7,0,0,1,2.25-1c3.12-.11,6.25,0,9.89,0l-14.18,15.7,15.06,19.37c-4,0-7.66,0-11.34-.06a2.84,2.84,0,0,1-1.71-1.24c-3.78-5.15-7.5-10.33-11.5-15.88Z"/><path class="cls-1" d="M284.31,75.76c-10.77.08-18.18-7.44-18.3-18.55-.1-10.69,7.52-18.3,18.36-18.33s18.22,7.17,18.56,17.65C303.35,69.42,293.26,76.2,284.31,75.76Zm8.75-18.35c-.06-.89-.08-1.79-.2-2.67a8.57,8.57,0,0,0-7.79-7.67A7.73,7.73,0,0,0,276.6,53a18.79,18.79,0,0,0,0,8.44A8,8,0,0,0,289,66.24C292.07,64.11,293.1,61,293.06,57.41Z"/><path class="cls-1" d="M140.81,40.09h9.68c0,6.42,0,12.74,0,19.06a22.31,22.31,0,0,0,.13,3.06c.54,3.79,3,5.8,6.7,5.56a6.3,6.3,0,0,0,6.1-6.39c.07-6.52,0-13.05,0-19.57V40.14h9.72V75h-9.66V71.59a12.94,12.94,0,0,1-9.63,4.22c-7.48.15-12.72-4.28-13-11.76C140.57,56.13,140.81,48.2,140.81,40.09Z"/><path class="cls-1" d="M316.28,74.88h-9.56V40.09h9.18v3.79a15.33,15.33,0,0,1,9.28-4.82c7.47-1,13.73,3.55,14.11,11.07.41,8.16.09,16.35.09,24.68h-9.3c0-.49-.1-1-.1-1.58,0-6.27,0-12.54,0-18.82,0-4-1.55-6.25-4.64-7a7.47,7.47,0,0,0-9,7c-.06,6.08,0,12.16,0,18.24Z"/><path class="cls-1" d="M211.11,74.93h-9.64V72.85c0-6.33,0-12.66,0-19,0-3.91-2-6.35-5.2-6.59-4.3-.32-7.45,1.8-7.87,5.73-.35,3.29-.24,6.63-.27,10,0,4,0,7.9,0,12h-9.54V40.11H188v3.45a11.6,11.6,0,0,1,8.08-4.45c8.13-.8,14.35,3.24,14.86,11.85.43,7.33.11,14.7.13,22.06Z"/><path class="cls-1" d="M58.17,50.84l21.9-19.62c7.1,8.87,9.94,27.21.26,42.59Z"/><path class="cls-1" d="M238.09,47.59h-8.47v2.89c0,3.84-.07,7.68,0,11.52.15,4.83,2.33,6.45,7.11,5.48.43-.09.86-.16,1.48-.27,0,2.33.06,4.55-.05,6.77a1.67,1.67,0,0,1-1.06,1.21c-3.16.14-6.4.55-9.49.07a9.19,9.19,0,0,1-7.73-9.16c-.17-5.43-.12-10.87-.17-16.31V47.6h-5.26V40.06h5.22V31.81h9.91V40h8.47Z"/><path class="cls-1" d="M243.44,40.08h9.45v4.38c3.42-4.51,7.84-6.41,11.86-5.19v8.55a48.93,48.93,0,0,0-5.08.65c-4.49,1-6.69,3.85-6.71,8.48,0,5.93,0,11.87,0,17.92h-9.51Z"/><path class="cls-1" d="M51.43,50.58l26,26.87-3.14,2.88L44.5,50.84c10-9,19.93-18,30-27.07l3.09,3.35Z"/></svg>