<svg id="Calque_1" data-name="Calque 1" xmlns="http://www.w3.org/2000/svg" viewBox="0 0 109 109"><defs><style>.cls-1{fill:#fff;}</style></defs><title>lancher</title><rect width="109" height="109"/><path class="cls-1" d="M49.87,76.64,30.56,42.3H47.33l0,.08,31.07-.14L45.91,55.48ZM34,44.3,45.67,65.09l-2-10.85,24.47-10-21.89.09,0-.08Z"/><path class="cls-1" d="M49.87,76.64,30.56,42.3H47.33l0,.08,31.07-.14L45.91,55.48ZM34,44.3,45.67,65.09l-2-10.85,24.47-10-21.89.09,0-.08Z"/><path class="cls-1" d="M54.5,73.36A20.5,20.5,0,1,1,75,52.86,20.52,20.52,0,0,1,54.5,73.36Zm0-39A18.5,18.5,0,1,0,73,52.86,18.52,18.52,0,0,0,54.5,34.36Z"/></svg>