<svg id="Calque_1" data-name="Calque 1" xmlns="http://www.w3.org/2000/svg" viewBox="0 0 180 180"><title>logo2</title><path d="M177.59,45.15l-23.39.1a75,75,0,0,0-128.46.11H2.41l13.9,24.71a74.91,74.91,0,0,0,47.32,84.15L73.07,171l-2.74-14.62A75,75,0,0,0,158.28,53ZM90,16.32a67.65,67.65,0,0,1,55.48,29l-81.56.35-.16-.28H34.47A67.64,67.64,0,0,1,90,16.32ZM57.7,128.74,24,68.88a67.36,67.36,0,0,1,6-16.2H59.53l.17.3,80.09-.35L50.26,89.06ZM14.93,52.68h6.94A76.43,76.43,0,0,0,19,59.9ZM22.31,84c0-1.05,0-2.09.08-3.13L57.54,143.4A67.76,67.76,0,0,1,22.31,84Zm135.38,0a67.67,67.67,0,0,1-88.88,64.28L58.56,93.59,151.5,55.77A67.34,67.34,0,0,1,157.69,84Z"/></svg>