<svg id="Calque_1" data-name="Calque 1" xmlns="http://www.w3.org/2000/svg" viewBox="0 0 109 75"><defs><style>.cls-1{fill:#fff;}</style></defs><title>valkunt_l</title><path class="cls-1" d="M36.41,73.5a11.66,11.66,0,0,1-8.29-3.43L3.83,45.79a11.74,11.74,0,0,1,0-16.58L28.12,4.93a11.73,11.73,0,0,1,16.57,0L50.75,11a11.7,11.7,0,0,1,0,16.57l-6.19,6.19a5.31,5.31,0,0,0,0,7.5l6.19,6.19a11.7,11.7,0,0,1,0,16.57l-6.06,6.06A11.64,11.64,0,0,1,36.41,73.5Zm0-65.58a5.25,5.25,0,0,0-3.75,1.55L8.37,33.75a5.32,5.32,0,0,0,0,7.5L32.66,65.53a5.29,5.29,0,0,0,7.49,0l6.06-6.06a5.28,5.28,0,0,0,0-7.49L40,45.79a11.74,11.74,0,0,1,0-16.58L46.21,23a5.28,5.28,0,0,0,0-7.49L40.15,9.47A5.24,5.24,0,0,0,36.41,7.92Z"/><path class="cls-1" d="M54.5,55.41A11.68,11.68,0,0,1,46.21,52L40,45.79a11.74,11.74,0,0,1,0-16.58L46.21,23a11.74,11.74,0,0,1,16.58,0L69,29.21a11.74,11.74,0,0,1,0,16.58h0L62.79,52A11.72,11.72,0,0,1,54.5,55.41Zm0-29.4a5.31,5.31,0,0,0-3.75,1.55l-6.19,6.19a5.31,5.31,0,0,0,0,7.5l6.19,6.19a5.31,5.31,0,0,0,7.5,0l6.19-6.19a5.31,5.31,0,0,0,0-7.5l-6.19-6.19A5.31,5.31,0,0,0,54.5,26Z"/><path class="cls-1" d="M72.59,73.5a11.64,11.64,0,0,1-8.28-3.43L58.25,64a11.7,11.7,0,0,1,0-16.57l6.19-6.19a5.31,5.31,0,0,0,0-7.5l-6.19-6.19a11.7,11.7,0,0,1,0-16.57l6.06-6.06a11.73,11.73,0,0,1,16.57,0l24.29,24.28a11.74,11.74,0,0,1,0,16.58h0L80.88,70.07A11.66,11.66,0,0,1,72.59,73.5Zm0-65.58a5.24,5.24,0,0,0-3.74,1.55l-6.06,6.06a5.28,5.28,0,0,0,0,7.49L69,29.21a11.74,11.74,0,0,1,0,16.58L62.79,52a5.28,5.28,0,0,0,0,7.49l6.06,6.06a5.29,5.29,0,0,0,7.49,0l24.29-24.28h0a5.32,5.32,0,0,0,0-7.5L76.34,9.47A5.25,5.25,0,0,0,72.59,7.92Z"/></svg>