<svg id="Calque_1" data-name="Calque 1" xmlns="http://www.w3.org/2000/svg" xmlns:xlink="http://www.w3.org/1999/xlink" viewBox="0 0 109 109"><defs><style>.cls-1{fill:#fff;}.cls-2{fill:url(#Dégradé_sans_nom);}.cls-3{fill:url(#Dégradé_sans_nom_2);}</style><linearGradient id="Dégradé_sans_nom" x1="57.65" y1="47.09" x2="51.35" y2="61.91" gradientUnits="userSpaceOnUse"><stop offset="0" stop-color="#fff"/><stop offset="1"/></linearGradient><linearGradient id="Dégradé_sans_nom_2" x1="54.65" y1="54.5" x2="79.5" y2="54.5" gradientUnits="userSpaceOnUse"><stop offset="0"/><stop offset="1" stop-color="#fff"/></linearGradient></defs><title>valkunt</title><rect x="-1" y="-1.5" width="111" height="112"/><path class="cls-1" d="M46.14,71.14a5.37,5.37,0,0,1-3.83-1.59L31.08,58.33a5.43,5.43,0,0,1,0-7.66L42.31,39.45a5.41,5.41,0,0,1,7.66,0l2.8,2.8a5.43,5.43,0,0,1,0,7.66l-2.86,2.86a2.44,2.44,0,0,0,0,3.46l2.86,2.86a5.43,5.43,0,0,1,0,7.66L50,69.55A5.41,5.41,0,0,1,46.14,71.14Zm0-30.31a2.44,2.44,0,0,0-1.73.71L33.18,52.77a2.46,2.46,0,0,0,0,3.46L44.41,67.46a2.46,2.46,0,0,0,3.46,0l2.8-2.8a2.45,2.45,0,0,0,0-3.47l-2.86-2.86a5.43,5.43,0,0,1,0-7.66l2.86-2.86a2.45,2.45,0,0,0,0-3.47l-2.8-2.8A2.46,2.46,0,0,0,46.14,40.83Z"/><path class="cls-2" d="M54.5,62.78a5.39,5.39,0,0,1-3.83-1.59l-2.86-2.86a5.43,5.43,0,0,1,0-7.66l2.86-2.86a5.43,5.43,0,0,1,7.66,0l2.86,2.86a5.43,5.43,0,0,1,0,7.66h0l-2.86,2.86A5.39,5.39,0,0,1,54.5,62.78Zm0-13.59a2.43,2.43,0,0,0-1.73.72l-2.86,2.86a2.44,2.44,0,0,0,0,3.46l2.86,2.86a2.44,2.44,0,0,0,3.46,0l2.86-2.86a2.44,2.44,0,0,0,0-3.46l-2.86-2.86A2.43,2.43,0,0,0,54.5,49.19Z"/><path class="cls-3" d="M62.86,71.14A5.41,5.41,0,0,1,59,69.55l-2.8-2.8a5.43,5.43,0,0,1,0-7.66l2.86-2.86a2.44,2.44,0,0,0,0-3.46l-2.86-2.86a5.43,5.43,0,0,1,0-7.66l2.8-2.8a5.41,5.41,0,0,1,7.66,0L77.92,50.67a5.43,5.43,0,0,1,0,7.66h0L66.69,69.55A5.37,5.37,0,0,1,62.86,71.14Zm0-30.31a2.46,2.46,0,0,0-1.73.71l-2.8,2.8a2.45,2.45,0,0,0,0,3.47l2.86,2.86a5.43,5.43,0,0,1,0,7.66l-2.86,2.86a2.45,2.45,0,0,0,0,3.47l2.8,2.8a2.46,2.46,0,0,0,3.46,0L75.82,56.23h0a2.46,2.46,0,0,0,0-3.46L64.59,41.54A2.44,2.44,0,0,0,62.86,40.83Z"/></svg>